<?xml version="1.0" standalone="no"?>
<!DOCTYPE svg PUBLIC "-//W3C//DTD SVG 20010904//EN"
 "http://www.w3.org/TR/2001/REC-SVG-20010904/DTD/svg10.dtd">
<svg version="1.0" xmlns="http://www.w3.org/2000/svg"
 width="700.000000pt" height="700.000000pt" viewBox="0 0 700.000000 700.000000"
 preserveAspectRatio="xMidYMid meet">
<metadata>
Created by potrace 1.11, written by Peter Selinger 2001-2013
</metadata>
<g transform="translate(0.000000,700.000000) scale(0.100000,-0.100000)"
fill="#000000" stroke="none">
<path d="M2367 5796 c-3 -9 -1 -632 2 -646 0 -3 139 -5 309 -5 l307 0 0 -1590
0 -1590 -302 -1 c-167 0 -306 -4 -310 -8 -4 -4 -8 -153 -8 -332 l0 -324 1135
2 1134 3 1 323 c0 189 -4 326 -9 330 -5 3 -145 6 -310 6 l-301 1 -1 1585 c-1
872 2 1587 6 1590 5 3 144 5 309 5 166 0 301 2 302 5 3 15 4 637 1 646 -5 17
-2259 16 -2265 0z"/>
</g>
</svg>
